<svg xmlns="http://www.w3.org/2000/svg" viewBox="0 0 48 48" fill="none">
  <defs>
    <linearGradient id="saldoGrad" x1="8" y1="6" x2="42" y2="44" gradientUnits="userSpaceOnUse">
      <stop stop-color="#6AAD86"/>
      <stop offset="1" stop-color="#2F5D48"/>
    </linearGradient>
  </defs>
  <rect x="2" y="2" width="44" height="44" rx="14" fill="url(#saldoGrad)"/>
  <!-- wallet -->
  <path d="M14 18.5c0-1.5 1.2-2.7 2.7-2.7h14.6c1.5 0 2.7 1.2 2.7 2.7V31c0 1.5-1.2 2.7-2.7 2.7H16.7c-1.5 0-2.7-1.2-2.7-2.7V18.5Z" stroke="#fff" stroke-width="2.1" stroke-linejoin="round"/>
  <path d="M14 21.5h20" stroke="#fff" stroke-width="2.1" stroke-linecap="round"/>
  <path d="M31.5 24.8h3.2c1.2 0 2.2.9 2.2 2.1v.9c0 1.2-1 2.1-2.2 2.1h-3.2" stroke="#fff" stroke-width="2.1" stroke-linecap="round" stroke-linejoin="round"/>
  <!-- shield with plus (saldo / balance) -->
  <path d="M19.2 24.2c0-.3.2-.6.5-.7l3.1-1.1c.2-.1.4-.1.6 0l3.1 1.1c.3.1.5.4.5.7v3.4c0 2.1-1.4 4-3.4 4.7-.2.1-.4.1-.6 0-2-.7-3.4-2.6-3.4-4.7v-3.4Z" fill="#2F5D48" fill-opacity=".22" stroke="#fff" stroke-width="1.8" stroke-linejoin="round"/>
  <path d="M22.9 26.2v4.2M20.8 28.3h4.2" stroke="#fff" stroke-width="1.7" stroke-linecap="round"/>
</svg>
